name C:\Users\u0101727\Documents\MyRepositories\upper-imu-dc\Results\main_tracking\Case_46\FLX02_angularVelocities_groundFrame.mot
datacolumns 4
datarows 141
range 2.13000000 3.53000000
endheader 
time	radius_imu_x	radius_imu_y	radius_imu_z	
          2.13000000	         -0.90554885	          2.11284848	          0.72351895	
          2.14000000	         -0.90362352	          2.10335450	          0.72725587	
          2.15000000	         -0.90111377	          2.09141724	          0.73026649	
          2.16000000	         -0.89740228	          2.07731195	          0.73256166	
          2.17000000	         -0.89204042	          2.06128571	          0.73414508	
          2.18000000	         -0.88482702	          2.04353255	          0.73501223	
          2.19000000	         -0.87585286	          2.02417255	          0.73516446	
          2.20000000	         -0.86550027	          2.00323851	          0.73463200	
          2.21000000	         -0.85439141	          1.98067368	          0.73349501	
          2.22000000	         -0.84328693	          1.95634314	          0.73189216	
          2.23000000	         -0.83295167	          1.93005772	          0.73001248	
          2.24000000	         -0.82401933	          1.90160549	          0.72807363	
          2.25000000	         -0.81689201	          1.87078334	          0.72629438	
          2.26000000	         -0.81169915	          1.83742110	          0.72486924	
          2.27000000	         -0.80831674	          1.80139547	          0.72395233	
          2.28000000	         -0.80642916	          1.76263623	          0.72365452	
          2.29000000	         -0.80561085	          1.72113065	          0.72405210	
          2.30000000	         -0.80541034	          1.67691749	          0.72521640	
          2.31000000	         -0.80541096	          1.63008539	          0.72723003	
          2.32000000	         -0.80523428	          1.58077037	          0.73015786	
          2.33000000	         -0.80455399	          1.52915331	          0.73407951	
          2.34000000	         -0.80307643	          1.47546961	          0.73908925	
          2.35000000	         -0.80050963	          1.42000587	          0.74525801	
          2.36000000	         -0.79656602	          1.36308890	          0.75263284	
          2.37000000	         -0.79097368	          1.30507137	          0.76122225	
          2.38000000	         -0.78349698	          1.24631768	          0.77098949	
          2.39000000	         -0.77395654	          1.18719091	          0.78184789	
          2.40000000	         -0.76224191	          1.12804285	          0.79366169	
          2.41000000	         -0.74831228	          1.06920976	          0.80625410	
          2.42000000	         -0.73218614	          1.01101359	          0.81942220	
          2.43000000	         -0.71392725	          0.95376549	          0.83295522	
          2.44000000	         -0.69363573	          0.89776747	          0.84665161	
          2.45000000	         -0.67144983	          0.84330865	          0.86033078	
          2.46000000	         -0.64756017	          0.79065429	          0.87383709	
          2.47000000	         -0.62223276	          0.74002823	          0.88703652	
          2.48000000	         -0.59583434	          0.69159111	          0.89980851	
          2.49000000	         -0.56885360	          0.64541794	          0.91203687	
          2.50000000	         -0.54191285	          0.60147753	          0.92360310	
          2.51000000	         -0.51576512	          0.55961742	          0.93438405	
          2.52000000	         -0.49127230	          0.51955759	          0.94425351	
          2.53000000	         -0.46936284	          0.48089655	          0.95308640	
          2.54000000	         -0.45096998	          0.44313287	          0.96076404	
          2.55000000	         -0.43695438	          0.40570384	          0.96718048	
          2.56000000	         -0.42801690	          0.36804075	          0.97225044	
          2.57000000	         -0.42461206	          0.32963568	          0.97592011	
          2.58000000	         -0.42687820	          0.29010869	          0.97817991	
          2.59000000	         -0.43460543	          0.24925851	          0.97907565	
          2.60000000	         -0.44725517	          0.20708227	          0.97871285	
          2.61000000	         -0.46402506	          0.16376334	          0.97725184	
          2.62000000	         -0.48393597	          0.11963958	          0.97489479	
          2.63000000	         -0.50591877	          0.07516565	          0.97186889	
          2.64000000	         -0.52889085	          0.03087553	          0.96840937	
          2.65000000	         -0.55182254	         -0.01265698	          0.96474456	
          2.66000000	         -0.57379681	         -0.05486319	          0.96108296	
          2.67000000	         -0.59405900	         -0.09522723	          0.95760147	
          2.68000000	         -0.61204847	         -0.13332747	          0.95443434	
          2.69000000	         -0.62740557	         -0.16886274	          0.95166411	
          2.70000000	         -0.63995508	         -0.20166077	          0.94931639	
          2.71000000	         -0.64967319	         -0.23167243	          0.94736028	
          2.72000000	         -0.65664601	         -0.25895540	          0.94571503	
          2.73000000	         -0.66102668	         -0.28365034	          0.94426163	
          2.74000000	         -0.66299842	         -0.30595305	          0.94285645	
          2.75000000	         -0.66274974	         -0.32608813	          0.94134296	
          2.76000000	         -0.66046320	         -0.34428763	          0.93955953	
          2.77000000	         -0.65631384	         -0.36077508	          0.93734332	
          2.78000000	         -0.65047213	         -0.37575428	          0.93453188	
          2.79000000	         -0.64310769	         -0.38940218	          0.93096463	
          2.80000000	         -0.63439144	         -0.40186540	          0.92648599	
          2.81000000	         -0.62449495	         -0.41325957	          0.92095129	
          2.82000000	         -0.61358707	         -0.42367147	          0.91423522	
          2.83000000	         -0.60182864	         -0.43316449	          0.90624154	
          2.84000000	         -0.58936639	         -0.44178762	          0.89691171	
          2.85000000	         -0.57632674	         -0.44958624	          0.88623091	
          2.86000000	         -0.56280993	         -0.45661150	          0.87423099	
          2.87000000	         -0.54888485	         -0.46292491	          0.86099071	
          2.88000000	         -0.53458566	         -0.46859659	          0.84663371	
          2.89000000	         -0.51991189	         -0.47369871	          0.83132384	
          2.90000000	         -0.50483337	         -0.47829786	          0.81525748	
          2.91000000	         -0.48929950	         -0.48244918	          0.79865315	
          2.92000000	         -0.47325118	         -0.48619347	          0.78173985	
          2.93000000	         -0.45663264	         -0.48955659	          0.76474614	
          2.94000000	         -0.43940129	         -0.49254974	          0.74789144	
          2.95000000	         -0.42153465	         -0.49516904	          0.73137942	
          2.96000000	         -0.40303456	         -0.49739387	          0.71539303	
          2.97000000	         -0.38392953	         -0.49918434	          0.70008981	
          2.98000000	         -0.36427569	         -0.50047931	          0.68559703	
          2.99000000	         -0.34415666	         -0.50119603	          0.67200715	
          3.00000000	         -0.32368198	         -0.50123233	          0.65937454	
          3.01000000	         -0.30298390	         -0.50047083	          0.64771496	
          3.02000000	         -0.28221238	         -0.49878416	          0.63700873	
          3.03000000	         -0.26152865	         -0.49603919	          0.62720749	
          3.04000000	         -0.24109801	         -0.49209869	          0.61824389	
          3.05000000	         -0.22108318	         -0.48682076	          0.61004283	
          3.06000000	         -0.20163960	         -0.48005958	          0.60253249	
          3.07000000	         -0.18291375	         -0.47167226	          0.59565298	
          3.08000000	         -0.16504470	         -0.46153542	          0.58936061	
          3.09000000	         -0.14816743	         -0.44957024	          0.58362694	
          3.10000000	         -0.13241604	         -0.43577024	          0.57843337	
          3.11000000	         -0.11792503	         -0.42022277	          0.57376364	
          3.12000000	         -0.10482723	         -0.40311507	          0.56959710	
          3.13000000	         -0.09324834	         -0.38472022	          0.56590493	
          3.14000000	         -0.08329960	         -0.36536754	          0.56264983	
          3.15000000	         -0.07507110	         -0.34540891	          0.55978745	
          3.16000000	         -0.06862748	         -0.32519339	          0.55726730	
          3.17000000	         -0.06400599	         -0.30505633	          0.55503152	
          3.18000000	         -0.06121526	         -0.28532162	          0.55301194	
          3.19000000	         -0.06023288	         -0.26631051	          0.55112707	
          3.20000000	         -0.06100114	         -0.24835003	          0.54928131	
          3.21000000	         -0.06342203	         -0.23177601	          0.54736717	
          3.22000000	         -0.06735355	         -0.21692877	          0.54527088	
          3.23000000	         -0.07260892	         -0.20414078	          0.54288031	
          3.24000000	         -0.07895889	         -0.19371808	          0.54009383	
          3.25000000	         -0.08613723	         -0.18591958	          0.53682846	
          3.26000000	         -0.09384867	         -0.18093771	          0.53302619	
          3.27000000	         -0.10177914	         -0.17888218	          0.52865770	
          3.28000000	         -0.10960784	         -0.17976753	          0.52372283	
          3.29000000	         -0.11702113	         -0.18350529	          0.51824715	
          3.30000000	         -0.12372778	         -0.18990182	          0.51227494	
          3.31000000	         -0.12947452	         -0.19866263	          0.50585935	
          3.32000000	         -0.13405994	         -0.20940335	          0.49905173	
          3.33000000	         -0.13734465	         -0.22166664	          0.49189170	
          3.34000000	         -0.13925661	         -0.23494562	          0.48439882	
          3.35000000	         -0.13979113	         -0.24871427	          0.47656595	
          3.36000000	         -0.13900599	         -0.26246436	          0.46835465	
          3.37000000	         -0.13701233	         -0.27574354	          0.45969390	
          3.38000000	         -0.13396222	         -0.28818591	          0.45048391	
          3.39000000	         -0.13003398	         -0.29952790	          0.44060607	
          3.40000000	         -0.12541685	         -0.30960822	          0.42993804	
          3.41000000	         -0.12029674	         -0.31835721	          0.41837107	
          3.42000000	         -0.11484414	         -0.32578246	          0.40582623	
          3.43000000	         -0.10920470	         -0.33195386	          0.39226698	
          3.44000000	         -0.10349260	         -0.33698725	          0.37770763	
          3.45000000	         -0.09778685	         -0.34102454	          0.36221791	
          3.46000000	         -0.09213099	         -0.34421100	          0.34592398	
          3.47000000	         -0.08653623	         -0.34667343	          0.32900517	
          3.48000000	         -0.08098791	         -0.34850263	          0.31168575	
          3.49000000	         -0.07545420	         -0.34974244	          0.29422181	
          3.50000000	         -0.06989582	         -0.35038590	          0.27688397	
          3.51000000	         -0.06427544	         -0.35037920	          0.25993774	
          3.52000000	         -0.05856587	         -0.34963309	          0.24362372	
          3.53000000	         -0.05275592	         -0.34803995	          0.22813980	
